<?xml version="1.0" encoding="UTF-8"?>
<svg data-bbox="0 0 676 396" viewBox="0 0 676 396" height="528" width="901.333" xmlns="http://www.w3.org/2000/svg" data-type="shape">
    <g>
        <path d="M0 198v198h676V0H0v198zm592 .5V338h-64.8c-35.7 0-152.7-.3-260-.7L72 336.7V59h520v139.5z"/>
        <path d="M83 198v128h498V70H83v128zm68-42v28h66v-56h21v134h-21v-57h-66v57h-21V128h21v28zm164.3 15.7c10.1 25.3 17.8 43.2 18.2 42.3.3-.8 7.9-20.4 16.8-43.5l16.2-42 12.3-.3c6.7-.1 12.2.1 12.2.5.1 1.3-58.4 138.3-59 138.3-.5 0-59.1-137-59-138.3 0-.4 5.6-.7 12.4-.7h12.3l17.6 43.7zM447 156v28h66v-56h21v134h-21v-57h-66v57h-21V128h21v28z"/>
    </g>
</svg>
